# xmcd CD database file
#
# Track frame offsets:
#	150
#	17680
#	36637
#	59240
#	80855
#	96617
#	120507
#	141270
#	171565
#	192742
#	205342
#	233265
#	243887
#	268635
#	300850
#	316635
#
# Disc length: 4261 seconds
#
# Revision: 5
# Processed by: cddbd v1.5.2PL0 Copyright (c) Steve Scherf et al.
# Submitted via: CDex 1.51
#
DISCID=e810a310
DTITLE=Louis Armstrong - Vol. 011 - Louis Armstrong and the All Stars at Symphony Hall
DYEAR=1947
DGENRE=Jazz
TTITLE0=Mahogany Hall Stomp
TTITLE1=Black and Blue
TTITLE2=Royal Garden Blues
TTITLE3=That's My Desire
TTITLE4=C Jam Blues
TTITLE5=Stars Fell in Alabama
TTITLE6=I Cried for You
TTITLE7=On the Sunny Side of the Street
TTITLE8=Tea for Two
TTITLE9=Baby, Won't You Please Come Home
TTITLE10=Muskrat Ramble
TTITLE11=Lover
TTITLE12=Body and Soul
TTITLE13=Steak Face
TTITLE14=High Society
TTITLE15=Boff Boff
EXTD=YEAR: 1947
EXTT0=
EXTT1=
EXTT2=
EXTT3=
EXTT4=
EXTT5=
EXTT6=
EXTT7=
EXTT8=
EXTT9=
EXTT10=
EXTT11=
EXTT12=
EXTT13=
EXTT14=
EXTT15=
PLAYORDER=
